<?xml version="1.0" encoding="UTF-8"?>
<svg id="Layer_1" data-name="Layer 1" xmlns="http://www.w3.org/2000/svg" xmlns:xlink="http://www.w3.org/1999/xlink" viewBox="0 0 18.12 29.88">
  <defs>
    <style>
      .cls-1 {
        fill: #fff;
      }

      .cls-2 {
        fill: none;
      }

      .cls-3 {
        fill: url(#linear-gradient);
      }

      .cls-4 {
        clip-path: url(#clippath);
      }
    </style>
    <clipPath id="clippath">
      <path class="cls-2" d="M5.11,16.88l1.35-5.34c.12.02.24.03.36.04v.02h.38s.12,0,.12,0h0c.11-.01.23-.02.34-.04l1.29,5.45c-.56.09-1.11.13-1.66.13-1.04,0-1.8-.15-2.19-.25M6.97,9.52c-.95-.07-1.7-.87-1.7-1.82,0-1,.82-1.82,1.82-1.82s1.82.82,1.82,1.82-.77,1.78-1.74,1.82h-.11s-.09,0-.09,0ZM5.45,2.02v2.15c-1.35.63-2.24,2.02-2.24,3.53,0,.76.22,1.5.63,2.13L.38,24.26l.23,4.49,2.49-3.63,1.57-6.23c.49.14,1.41.35,2.65.35.68,0,1.39-.06,2.1-.18l1.46,6.06,2.44,3.63.51-4.69-1.49-5.82c3.46-1.32,4.85-2.7,5-2.86l.26-.27-1.5-1.43-.26.26s-1.15,1.14-4,2.26l-1.58-6.21c.48-.66.74-1.47.74-2.29,0-1.52-.87-2.88-2.23-3.52l-.02-2.16c0-.91-.74-1.65-1.65-1.65s-1.65.74-1.65,1.65"/>
    </clipPath>
    <linearGradient id="linear-gradient" x1="-319.65" y1="164.83" x2="-318.65" y2="164.83" gradientTransform="translate(5501.84 2851.52) scale(17.21 -17.21)" gradientUnits="userSpaceOnUse">
      <stop offset="0" stop-color="#e4a641"/>
      <stop offset="1" stop-color="#bb5218"/>
    </linearGradient>
  </defs>
  <g class="cls-4">
    <rect class="cls-3" x=".38" y=".37" width="17.21" height="28.38"/>
  </g>
  <path class="cls-1" d="M7.1.75c.7,0,1.27.57,1.27,1.27l.02,2.41c1.3.52,2.23,1.79,2.23,3.27,0,.83-.29,1.6-.78,2.2l1.73,6.79c3.25-1.21,4.51-2.49,4.53-2.5l.96.92c-.06.06-1.48,1.54-5.17,2.89l1.56,6.08-.39,3.6-1.83-2.72-1.53-6.34c-.89.18-1.69.24-2.38.24-1.78,0-2.84-.43-2.91-.46l-1.66,6.56-1.83,2.66-.17-3.32,3.49-14.54c-.42-.58-.66-1.29-.66-2.05,0-1.5.93-2.77,2.25-3.28v-2.4c0-.7.56-1.27,1.27-1.27M6.95,11.21c-.28,0-.51-.04-.77-.11l-1.52,6.04s1.01.38,2.64.38c.62,0,1.33-.05,2.12-.2l-1.47-6.19c-.24.06-.49.09-.75.1v-1.32c1.17-.05,2.1-1.01,2.1-2.2s-.98-2.2-2.2-2.2-2.2.98-2.2,2.2.9,2.12,2.05,2.2v1.32M7.1,0c-1.12,0-2.02.91-2.02,2.02v1.92c-1.36.74-2.24,2.19-2.24,3.76,0,.78.21,1.53.6,2.19L.03,24.12l-.03.1v.11s.17,3.32.17,3.32l.11,2.22,1.26-1.83,1.83-2.66.08-.11.03-.13,1.46-5.8c.55.13,1.36.26,2.38.26.59,0,1.2-.04,1.82-.13l1.36,5.66.03.13.08.11,1.83,2.72,1.15,1.71.22-2.04.39-3.6.02-.13-.03-.13-1.39-5.43c3.31-1.31,4.67-2.67,4.82-2.83l.52-.54-.54-.52-.96-.92-.55-.52-.52.55s-1,.98-3.46,2l-1.43-5.63c.46-.69.71-1.52.71-2.36,0-1.59-.86-3.01-2.23-3.75v-1.93c-.01-1.11-.92-2.02-2.04-2.02M7.07,9.15h-.07c-.76-.06-1.35-.69-1.35-1.45,0-.8.65-1.45,1.45-1.45s1.45.65,1.45,1.45-.61,1.41-1.38,1.45h-.09ZM6.73,11.98h.48s.16,0,.16,0l1.12,4.72c-.4.05-.8.07-1.2.07-.73,0-1.32-.08-1.73-.16l1.16-4.62Z"/>
</svg>